<svg width="246" height="135" viewBox="0 0 246 135" fill="none" xmlns="http://www.w3.org/2000/svg">
<rect width="246" height="135" fill="white"/>
<path d="M45.6 55.6C45.6 57.6 45.0833 59.2833 44.05 60.65C43.0167 61.9833 41.6167 63 39.85 63.7C38.1167 64.4 36.2167 64.75 34.15 64.75H17V29.25H36C37.6667 29.25 39.1 29.7 40.3 30.6C41.5333 31.4667 42.4667 32.6 43.1 34C43.7667 35.3667 44.1 36.8 44.1 38.3C44.1 40 43.6667 41.6167 42.8 43.15C41.9333 44.6833 40.6667 45.8167 39 46.55C41.0333 47.15 42.6333 48.2333 43.8 49.8C45 51.3667 45.6 53.3 45.6 55.6ZM38.65 54.3C38.65 53.4 38.4667 52.6 38.1 51.9C37.7333 51.1667 37.2333 50.6 36.6 50.2C36 49.7667 35.3 49.55 34.5 49.55H23.9V58.9H34.15C34.9833 58.9 35.7333 58.7 36.4 58.3C37.1 57.8667 37.65 57.3 38.05 56.6C38.45 55.9 38.65 55.1333 38.65 54.3ZM23.9 35.15V44.1H33.1C33.8667 44.1 34.5667 43.9167 35.2 43.55C35.8333 43.1833 36.3333 42.6667 36.7 42C37.1 41.3333 37.3 40.5333 37.3 39.6C37.3 38.7 37.1167 37.9167 36.75 37.25C36.4167 36.5833 35.95 36.0667 35.35 35.7C34.7833 35.3333 34.1333 35.15 33.4 35.15H23.9Z" fill="black"/>
<path d="M67.1344 65C64.5344 65 62.1677 64.5 60.0344 63.5C57.9344 62.5 56.1177 61.15 54.5844 59.45C53.0844 57.7167 51.9177 55.7833 51.0844 53.65C50.251 51.4833 49.8344 49.2667 49.8344 47C49.8344 44.6333 50.2677 42.3833 51.1344 40.25C52.0344 38.0833 53.251 36.1667 54.7844 34.5C56.351 32.8 58.1844 31.4667 60.2844 30.5C62.4177 29.5 64.751 29 67.2844 29C69.851 29 72.1844 29.5167 74.2844 30.55C76.4177 31.5833 78.2344 32.9667 79.7344 34.7C81.2344 36.4333 82.401 38.3667 83.2344 40.5C84.0677 42.6333 84.4844 44.8333 84.4844 47.1C84.4844 49.4333 84.051 51.6833 83.1844 53.85C82.3177 55.9833 81.101 57.9 79.5344 59.6C78.001 61.2667 76.1677 62.5833 74.0344 63.55C71.9344 64.5167 69.6344 65 67.1344 65ZM56.8344 47C56.8344 48.5333 57.0677 50.0167 57.5344 51.45C58.001 52.8833 58.6677 54.1667 59.5344 55.3C60.4344 56.4 61.5177 57.2833 62.7844 57.95C64.0844 58.5833 65.551 58.9 67.1844 58.9C68.851 58.9 70.3344 58.5667 71.6344 57.9C72.9344 57.2 74.0177 56.2833 74.8844 55.15C75.751 53.9833 76.401 52.7 76.8344 51.3C77.301 49.8667 77.5344 48.4333 77.5344 47C77.5344 45.4667 77.2844 44 76.7844 42.6C76.3177 41.1667 75.6344 39.9 74.7344 38.8C73.8677 37.6667 72.7844 36.7833 71.4844 36.15C70.2177 35.4833 68.7844 35.15 67.1844 35.15C65.4844 35.15 63.9844 35.5 62.6844 36.2C61.4177 36.8667 60.351 37.7667 59.4844 38.9C58.6177 40.0333 57.951 41.3 57.4844 42.7C57.051 44.1 56.8344 45.5333 56.8344 47Z" fill="black"/>
<path d="M106.927 65C104.327 65 101.961 64.5 99.8273 63.5C97.7273 62.5 95.9107 61.15 94.3773 59.45C92.8773 57.7167 91.7107 55.7833 90.8773 53.65C90.044 51.4833 89.6273 49.2667 89.6273 47C89.6273 44.6333 90.0607 42.3833 90.9273 40.25C91.8273 38.0833 93.044 36.1667 94.5773 34.5C96.144 32.8 97.9773 31.4667 100.077 30.5C102.211 29.5 104.544 29 107.077 29C109.644 29 111.977 29.5167 114.077 30.55C116.211 31.5833 118.027 32.9667 119.527 34.7C121.027 36.4333 122.194 38.3667 123.027 40.5C123.861 42.6333 124.277 44.8333 124.277 47.1C124.277 49.4333 123.844 51.6833 122.977 53.85C122.111 55.9833 120.894 57.9 119.327 59.6C117.794 61.2667 115.961 62.5833 113.827 63.55C111.727 64.5167 109.427 65 106.927 65ZM96.6273 47C96.6273 48.5333 96.8607 50.0167 97.3273 51.45C97.794 52.8833 98.4607 54.1667 99.3273 55.3C100.227 56.4 101.311 57.2833 102.577 57.95C103.877 58.5833 105.344 58.9 106.977 58.9C108.644 58.9 110.127 58.5667 111.427 57.9C112.727 57.2 113.811 56.2833 114.677 55.15C115.544 53.9833 116.194 52.7 116.627 51.3C117.094 49.8667 117.327 48.4333 117.327 47C117.327 45.4667 117.077 44 116.577 42.6C116.111 41.1667 115.427 39.9 114.527 38.8C113.661 37.6667 112.577 36.7833 111.277 36.15C110.011 35.4833 108.577 35.15 106.977 35.15C105.277 35.15 103.777 35.5 102.477 36.2C101.211 36.8667 100.144 37.7667 99.2773 38.9C98.4107 40.0333 97.744 41.3 97.2773 42.7C96.844 44.1 96.6273 45.5333 96.6273 47Z" fill="black"/>
<path d="M130.57 64.75V29.25H145.62C147.254 29.25 148.754 29.5833 150.12 30.25C151.487 30.9167 152.67 31.8167 153.67 32.95C154.704 34.0833 155.504 35.35 156.07 36.75C156.637 38.15 156.92 39.5833 156.92 41.05C156.92 43.05 156.454 44.95 155.52 46.75C154.587 48.55 153.304 50.0167 151.67 51.15C150.037 52.2833 148.104 52.85 145.87 52.85H137.47V64.75H130.57ZM137.47 46.8H145.47C146.304 46.8 147.054 46.5667 147.72 46.1C148.387 45.6333 148.92 44.9667 149.32 44.1C149.72 43.2 149.92 42.1833 149.92 41.05C149.92 39.8167 149.687 38.7667 149.22 37.9C148.787 37.0333 148.204 36.3833 147.47 35.95C146.77 35.5167 146.004 35.3 145.17 35.3H137.47V46.8Z" fill="black"/>
<path d="M183.873 38.55C183.639 38.3167 183.206 38 182.573 37.6C181.973 37.2 181.223 36.8167 180.323 36.45C179.456 36.0833 178.506 35.7667 177.473 35.5C176.439 35.2 175.389 35.05 174.323 35.05C172.456 35.05 171.039 35.4 170.073 36.1C169.139 36.8 168.673 37.7833 168.673 39.05C168.673 40.0167 168.973 40.7833 169.573 41.35C170.173 41.9167 171.073 42.4 172.273 42.8C173.473 43.2 174.973 43.6333 176.773 44.1C179.106 44.6667 181.123 45.3667 182.823 46.2C184.556 47 185.873 48.0667 186.773 49.4C187.706 50.7 188.173 52.4333 188.173 54.6C188.173 56.5 187.823 58.1333 187.123 59.5C186.423 60.8333 185.456 61.9167 184.223 62.75C182.989 63.5833 181.589 64.2 180.023 64.6C178.456 64.9667 176.789 65.15 175.023 65.15C173.256 65.15 171.489 64.9667 169.723 64.6C167.956 64.2333 166.256 63.7167 164.623 63.05C162.989 62.35 161.489 61.5167 160.123 60.55L163.173 54.6C163.473 54.9 164.006 55.3 164.773 55.8C165.539 56.2667 166.473 56.75 167.573 57.25C168.673 57.7167 169.873 58.1167 171.173 58.45C172.473 58.7833 173.789 58.95 175.123 58.95C176.989 58.95 178.406 58.6333 179.373 58C180.339 57.3667 180.823 56.4667 180.823 55.3C180.823 54.2333 180.439 53.4 179.673 52.8C178.906 52.2 177.839 51.6833 176.473 51.25C175.106 50.7833 173.489 50.2833 171.623 49.75C169.389 49.1167 167.523 48.4167 166.023 47.65C164.523 46.85 163.406 45.85 162.673 44.65C161.939 43.45 161.573 41.95 161.573 40.15C161.573 37.7167 162.139 35.6833 163.273 34.05C164.439 32.3833 166.006 31.1333 167.973 30.3C169.939 29.4333 172.123 29 174.523 29C176.189 29 177.756 29.1833 179.223 29.55C180.723 29.9167 182.123 30.4 183.423 31C184.723 31.6 185.889 32.25 186.923 32.95L183.873 38.55Z" fill="black"/>
<path d="M78.5332 106.111V98.6609H65.3C64.7477 98.6609 64.3 98.2132 64.3 97.6609V92.7109L74.5259 71.7721C74.6936 71.4287 75.0424 71.2109 75.4245 71.2109H85.5V81.9129V92.6109L90 92.6609V98.6609H85.5L85.4968 106.111H78.5332ZM71 92.6609H78.7168V75.7609L71 92.6609Z" fill="black"/>
<path d="M163.15 105.711C160.55 105.711 158.183 105.211 156.05 104.211C153.95 103.211 152.133 101.861 150.6 100.161C149.1 98.4276 147.933 96.4942 147.1 94.3609C146.267 92.1942 145.85 89.9776 145.85 87.7109C145.85 85.3442 146.283 83.0943 147.15 80.9609C148.05 78.7943 149.267 76.8776 150.8 75.2109C152.367 73.5109 154.2 72.1776 156.3 71.2109C158.433 70.2109 160.767 69.7109 163.3 69.7109C165.867 69.7109 168.2 70.2276 170.3 71.2609C172.433 72.2943 174.25 73.6776 175.75 75.4109C177.25 77.1443 178.417 79.0776 179.25 81.2109C180.083 83.3443 180.5 85.5442 180.5 87.8109C180.5 90.1442 180.067 92.3942 179.2 94.5609C178.333 96.6942 177.117 98.6109 175.55 100.311C174.017 101.978 172.183 103.294 170.05 104.261C167.95 105.228 165.65 105.711 163.15 105.711ZM152.85 87.7109C152.85 89.2442 153.083 90.7276 153.55 92.1609C154.017 93.5942 154.683 94.8776 155.55 96.0109C156.45 97.1109 157.533 97.9942 158.8 98.6609C160.1 99.2942 161.567 99.6109 163.2 99.6109C164.867 99.6109 166.35 99.2776 167.65 98.6109C168.95 97.9109 170.033 96.9942 170.9 95.8609C171.767 94.6942 172.417 93.4109 172.85 92.0109C173.317 90.5776 173.55 89.1442 173.55 87.7109C173.55 86.1776 173.3 84.7109 172.8 83.3109C172.333 81.8776 171.65 80.6109 170.75 79.5109C169.883 78.3776 168.8 77.4943 167.5 76.8609C166.233 76.1943 164.8 75.8609 163.2 75.8609C161.5 75.8609 160 76.2109 158.7 76.9109C157.433 77.5776 156.367 78.4776 155.5 79.6109C154.633 80.7443 153.967 82.0109 153.5 83.4109C153.067 84.8109 152.85 86.2442 152.85 87.7109Z" fill="black"/>
<path d="M208.88 106.25C206.047 106.25 203.63 105.783 201.63 104.85C199.663 103.883 198.063 102.567 196.83 100.9C195.63 99.2333 194.747 97.35 194.18 95.25C193.613 93.1167 193.33 90.9 193.33 88.6L193.871 30.4907C193.876 29.9421 194.322 29.5 194.871 29.5H199.623C200.178 29.5 200.627 29.9519 200.623 30.5068L200.23 88.6C200.23 90.0667 200.363 91.5 200.63 92.9C200.93 94.2667 201.413 95.5 202.08 96.6C202.747 97.7 203.63 98.5667 204.73 99.2C205.83 99.8333 207.197 100.15 208.83 100.15C210.497 100.15 211.88 99.8333 212.98 99.2C214.113 98.5333 214.997 97.65 215.63 96.55C216.297 95.45 216.78 94.2167 217.08 92.85C217.38 91.45 217.53 90.0333 217.53 88.6V70.5H224.497L224.38 88.6C224.38 91.0333 224.08 93.3167 223.48 95.45C222.913 97.5833 221.997 99.4667 220.73 101.1C219.497 102.7 217.897 103.967 215.93 104.9C213.963 105.8 211.613 106.25 208.88 106.25Z" fill="black"/>
<path d="M112.739 70.5L121.489 87.2L130.389 70.5H137.839L124.939 93.6V106H118.089V93.5L105.239 70.5H112.739Z" fill="black"/>
</svg>
